<svg xmlns="http://www.w3.org/2000/svg" xmlns:xlink="http://www.w3.org/1999/xlink" width="46" height="39" viewBox="0 0 46 39">
  <defs>
    <filter id="Bubble" x="0" y="0" width="46" height="39" filterUnits="userSpaceOnUse">
      <feOffset dy="1" input="SourceAlpha"/>
      <feGaussianBlur stdDeviation="1" result="blur"/>
      <feFlood flood-color="#10232f" flood-opacity="0.149"/>
      <feComposite operator="in" in2="blur"/>
      <feComposite in="SourceGraphic"/>
    </filter>
  </defs>
  <g transform="matrix(1, 0, 0, 1, 0, 0)" filter="url(#Bubble)">
    <path id="Bubble-2" data-name="Bubble" d="M33,33H12A12,12,0,0,1,0,21V12A12,12,0,0,1,12,0H27a6,6,0,0,1,6,6V16a29.759,29.759,0,0,0,2.049,8.782,17.4,17.4,0,0,0,4.626,6.48A1,1,0,0,1,39,33Z" transform="translate(3 2)" fill="#eeffde"/>
  </g>
</svg>
