<svg xmlns="http://www.w3.org/2000/svg" viewBox="0 0 160 160"><path fill="#5B8AF1" fill-rule="evenodd" d="M80 0a80 80 0 110 160A80 80 0 0180 0zm34.3 46.5h-.2c-3 0-7.6 1.6-29 10.4l-3.7 1.6-46.8 20.2c-4 1.5-6 3-6.2 4.6-.3 2.7 3.5 3.7 8.4 5.2l1.5.5c4 1.3 9.3 2.7 12 2.8 2.6 0 5.5-1 8.7-3l11.5-7.9a516.4 516.4 0 0123.9-15.6h.3c.5-.2 1-.2 1.4.1.5.5.5 1.3.4 1.5-.4 1.7-21.2 20.7-22.8 22.3l-.4.4c-4.5 4.6-9.4 7.6-1.7 12.8l1.8 1.1c5.7 3.8 9.5 6.6 15.4 10.5l1.6 1c4.7 3 8.3 6.7 13.2 6.3 2.1-.2 4.4-2.3 5.6-8.2v-.4c2.8-14.7 8.2-46.6 9.5-59.8 0-1.1 0-2.6-.2-3.2v-.3c-.2-.6-.4-1.4-1.2-2-.9-.7-2.3-1-3-1z"/></svg>
